<svg xmlns="http://www.w3.org/2000/svg" xmlns:xlink="http://www.w3.org/1999/xlink" xmlns:lucid="lucid" width="1186.5" height="865.67"><g transform="translate(-393.50000000000006 -100)" lucid:page-tab-id="0_0"><path d="M0 0h1870.87v1322.83H0z" fill="#fff"/><path d="M456.04 272.8c-10.83 0-28.1-2.45-28.3-9.08L420 206.5c-.14-.96.43-1.85 1.37-2.06.94-.13 1.88.48 2.1 1.44.8 3.28 13.65 7.86 32.64 7.86 19 0 31.87-4.58 32.66-7.86.22-.96 1.16-1.57 2.1-1.44.94.2 1.5 1.1 1.37 2.06l-7.87 57.22c0 2.25-2.1 4.17-6 5.74-1.8.68-3.4 1.16-5.27 1.57-5.93 1.3-11 1.78-17.06 1.78zm-31.92-61.66l6.93 52.3v.2c0 2.06 9.75 5.82 24.92 5.82 5.78.07 10.62-.48 16.25-1.64 1.73-.4 3.18-.9 4.84-1.57 3.1-1.23 3.83-2.33 3.83-2.67v-.2l7-52.24c-6.58 3.9-19.8 6.02-31.93 6.02-12.13 0-25.28-2.12-31.85-6.02z" stroke="#fff" stroke-opacity="0" fill="#3f8624"/><path d="M456.06 217.13c-16.15 0-34.25-3.65-35.98-10.4V205.8v-.22c0-7.52 19.03-12.77 36.12-12.77 17.1 0 35.98 5.26 35.98 12.78v.22l-.07.7v.22c-1.87 6.76-19.97 10.4-36.04 10.4zm-32.67-11.2c1.08 3.3 13.84 7.8 32.66 7.8 18.8 0 31.58-4.5 32.66-7.8v-.45c-.22-3.3-13.63-9.27-32.66-9.27-19.04 0-32.52 5.97-32.74 9.28zM492.23 240.67c-8.07 0-25.83-8-36.92-13.46l1.5-3.06c15.3 7.54 33.36 14.5 36.46 13.2-.24-.5-1.4-2.03-6.83-4.98l-.24-.17 1.68-2.97.25.17c5.47 3 8.07 5.3 8.53 7.5.16.94-.08 1.84-.7 2.58-1.04.95-2.32 1.36-3.73 1.2z" stroke="#fff" stroke-opacity="0" fill="#3f8624"/><path d="M456.05 229.4c-2.03 0-3.7-1.65-3.7-3.7 0-2.03 1.67-3.68 3.7-3.68 2.04 0 3.7 1.65 3.7 3.7 0 2.03-1.66 3.68-3.7 3.68zm0-3.98c-.17 0-.3.13-.3.3 0 .32.6.32.6 0v-.05c0-.16-.13-.28-.3-.28z" stroke="#fff" stroke-opacity="0" fill="#3f8624"/><use xlink:href="#a" transform="matrix(1,0,0,1,390.00000000000006,281.809375) translate(23.499999999999993 17.77777777777778)"/><use xlink:href="#b" transform="matrix(1,0,0,1,390.00000000000006,281.809375) translate(34.54938271604938 44.44444444444444)"/><path d="M600 126c0-3.3 2.7-6 6-6h668c3.3 0 6 2.7 6 6v228c0 3.3-2.7 6-6 6H606c-3.3 0-6-2.7-6-6z" stroke="#cd2264" stroke-width="3" fill="#fff" fill-opacity="0"/><path d="M600 120h56v56h-56v-56z" stroke="#fff" stroke-opacity="0" fill="#cd2264"/><path d="M639.2 156.78h-22.4v-2.4h6.4c.45 0 .8-.35.8-.8v-3.98c0-.44-.35-.8-.8-.8h-6.4v-1.6h6.4c.45 0 .8-.36.8-.8v-4c0-.43-.35-.8-.8-.8h-6.4v-2.38h22.4v4h1.6v-4.8c0-.48-.36-.84-.8-.84h-11.2v-1.6c1.6-.32 2.78-1.47 3.1-3.1.47-2.17-.94-4.28-3.1-4.72-2.17-.44-4.27.96-4.73 3.1-.42 2.17.95 4.3 3.12 4.72v1.6H616c-.46 0-.78.36-.78.84v3.2h-6.43c-.44 0-.8.35-.8.8v3.98c0 .44.36.8.8.8h6.42v1.6h-6.43c-.44 0-.8.36-.8.8v4c0 .43.36.8.8.8h6.42v3.18c0 .48.32.84.78.84h11.2v1.68c-1.62.32-2.8 1.47-3.13 3.1-.42 2.17.95 4.28 3.12 4.72 2.15.44 4.28-.96 4.7-3.1.47-2.17-.94-4.3-3.1-4.72v-1.68H640c.44 0 .8-.36.8-.84v-4h-1.6zm-13.6-24.8c0-1.3 1.06-2.38 2.4-2.38 1.32 0 2.4 1.07 2.4 2.4 0 1.3-1.08 2.4-2.4 2.4-1.34 0-2.4-1.1-2.4-2.4zm-16 11.23h12.8v2.4h-12.8zm0 7.2h12.8v2.4h-12.8zm20.8 13.6c0 1.33-1.08 2.4-2.4 2.4-1.34 0-2.4-1.07-2.4-2.4 0-1.3 1.06-2.4 2.4-2.4 1.32 0 2.4 1.1 2.4 2.4z" stroke="#fff" stroke-opacity="0" fill="#fff"/><path d="M647.2 144.8h-16c-.45 0-.8.36-.8.8v5.6c0 .44.35.8.8.8h16c.45 0 .8-.36.8-.8v-5.6c0-.44-.35-.8-.8-.8zm-.8 5.6H632v-4h14.4z" stroke="#fff" stroke-opacity="0" fill="#fff"/><use xlink:href="#c" transform="matrix(1,0,0,1,671,140) translate(0 17.77777777777778)"/><use xlink:href="#d" transform="matrix(1,0,0,1,671,140) translate(55.92592592592592 17.77777777777778)"/><use xlink:href="#e" transform="matrix(1,0,0,1,671,140) translate(107.77777777777777 17.77777777777778)"/><path d="M700 202.8h60v60h-60v-60z" stroke="#fff" stroke-opacity="0" stroke-width="2" fill="#cc2264"/><path d="M742.8 228v-4.8c0-.43-.36-.8-.8-.8h-11.2v-1.67c1.6-.32 2.78-1.52 3.1-3.12.47-2.15-.94-4.27-3.1-4.7-2.17-.45-4.27.95-4.73 3.1-.42 2.17.95 4.3 3.12 4.73v1.68H718c-.46 0-.78.37-.78.8v3.2h-6.43c-.44 0-.8.37-.8.8v4c0 .45.36.8.8.8h6.42v1.6h-6.43c-.44 0-.8.37-.8.8v4c0 .45.36.8.8.8h6.42v3.2c0 .45.32.8.78.8h11.2v1.7c-1.62.3-2.8 1.5-3.13 3.1-.42 2.17.95 4.3 3.12 4.73 2.15.44 4.28-.96 4.7-3.12.47-2.15-.94-4.27-3.1-4.7v-1.7H742c.44 0 .8-.35.8-.8v-4h-1.6v3.2h-22.4v-2.4h6.4c.45 0 .8-.35.8-.8v-4c0-.43-.35-.8-.8-.8h-6.4V232h6.4c.45 0 .8-.35.8-.8v-4c0-.43-.35-.8-.8-.8h-6.4V224h22.4v4zm-10.4 20.8c0 1.33-1.08 2.4-2.4 2.4-1.34 0-2.4-1.07-2.4-2.4 0-1.3 1.06-2.4 2.4-2.4 1.32 0 2.4 1.1 2.4 2.4zm-8-13.6v2.4h-12.8v-2.4zm0-7.2v2.4h-12.8V228zm3.2-11.2c0-1.3 1.06-2.4 2.4-2.4 1.32 0 2.4 1.1 2.4 2.4 0 1.33-1.08 2.4-2.4 2.4-1.34 0-2.4-1.07-2.4-2.4z" stroke="#fff" stroke-opacity="0" stroke-width="2" fill="#fff"/><path d="M749.2 229.6h-16c-.45 0-.8.37-.8.8v5.6c0 .45.35.8.8.8h16c.45 0 .8-.35.8-.8v-5.6c0-.43-.35-.8-.8-.8zm-.8 5.6H734v-4h14.4z" stroke="#fff" stroke-opacity="0" stroke-width="2" fill="#fff"/><use xlink:href="#f" transform="matrix(1,0,0,1,670,271.809375) translate(21.172839506172835 17.77777777777778)"/><path d="M832.2 200h60v60h-60v-60z" stroke="#fff" stroke-opacity="0" stroke-width="2" fill="#cc2264"/><path d="M875 225.2v-4.8c0-.44-.37-.8-.8-.8H863v-1.68c1.6-.32 2.77-1.52 3.1-3.12.46-2.16-.95-4.28-3.1-4.72-2.18-.44-4.28.96-4.74 3.12-.42 2.16.95 4.28 3.12 4.72v1.68h-11.2c-.45 0-.77.36-.77.8v3.2H843c-.43 0-.8.36-.8.8v4c0 .44.37.8.8.8h6.43v1.6H843c-.43 0-.8.36-.8.8v4c0 .44.37.8.8.8h6.43v3.2c0 .44.33.8.8.8h11.18v1.68c-1.6.32-2.8 1.52-3.12 3.12-.42 2.16.95 4.28 3.12 4.72 2.16.44 4.3-.96 4.72-3.12.46-2.16-.95-4.28-3.1-4.72v-1.68h11.2c.43 0 .8-.36.8-.8v-4h-1.62v3.2h-22.4v-2.4h6.4c.46 0 .82-.36.82-.8v-4c0-.44-.36-.8-.82-.8h-6.4v-1.6h6.4c.46 0 .82-.36.82-.8v-4c0-.44-.36-.8-.82-.8h-6.4v-2.4h22.4v4zM864.6 246c0 1.32-1.1 2.4-2.4 2.4-1.35 0-2.4-1.08-2.4-2.4 0-1.32 1.05-2.4 2.4-2.4 1.3 0 2.4 1.08 2.4 2.4zm-8-13.6v2.4h-12.8v-2.4zm0-7.2v2.4h-12.8v-2.4zm3.2-11.2c0-1.32 1.05-2.4 2.4-2.4 1.3 0 2.4 1.08 2.4 2.4 0 1.32-1.1 2.4-2.4 2.4-1.35 0-2.4-1.08-2.4-2.4z" stroke="#fff" stroke-opacity="0" stroke-width="2" fill="#fff"/><path d="M881.4 226.8h-16.02c-.44 0-.8.36-.8.8v5.6c0 .44.36.8.8.8h16.02c.44 0 .8-.36.8-.8v-5.6c0-.44-.36-.8-.8-.8zm-.8 5.6h-14.4v-4h14.4z" stroke="#fff" stroke-opacity="0" stroke-width="2" fill="#fff"/><use xlink:href="#g" transform="matrix(1,0,0,1,802.190625,269) translate(20.555555555555557 17.77777777777778)"/><path d="M964.38 197.2H1030v65.6h-65.62v-65.6z" stroke="#fff" stroke-opacity="0" stroke-width="2" fill="#cc2264"/><path d="M1011.2 224.75v-5.25c0-.48-.4-.87-.87-.87h-12.27v-1.84c1.76-.36 3.05-1.67 3.4-3.42.5-2.37-1.03-4.68-3.4-5.17-2.37-.47-4.66 1.06-5.17 3.43-.47 2.36 1.04 4.68 3.4 5.16v1.83h-12.23c-.5 0-.86.4-.86.87v3.5h-7.02c-.47 0-.86.4-.86.88v4.37c0 .48.4.88.86.88h7.03v1.74h-7.02c-.47 0-.86.4-.86.88v4.37c0 .5.4.88.86.88h7.03v3.5c0 .48.37.87.87.87h12.23v1.84c-1.76.36-3.05 1.67-3.4 3.42-.47 2.37 1.04 4.68 3.4 5.17 2.37.47 4.7-1.06 5.17-3.43.5-2.36-1.04-4.68-3.4-5.16v-1.83h12.26c.46 0 .86-.4.86-.87v-4.38h-1.77v3.5h-24.5V237h7c.5 0 .9-.4.9-.88v-4.37c0-.48-.4-.88-.9-.88h-7v-1.74h7c.5 0 .9-.4.9-.88v-4.37c0-.5-.4-.88-.9-.88h-7v-2.62h24.5v4.37zM999.8 247.5c0 1.44-1.2 2.62-2.62 2.62-1.47 0-2.62-1.18-2.62-2.62 0-1.45 1.15-2.63 2.62-2.63 1.43 0 2.62 1.18 2.62 2.63zm-8.75-14.88v2.63h-14v-2.63zm0-7.87v2.63h-14v-2.63zm3.5-12.25c0-1.44 1.16-2.62 2.63-2.62 1.43 0 2.62 1.18 2.62 2.62 0 1.45-1.2 2.63-2.62 2.63-1.47 0-2.62-1.18-2.62-2.63z" stroke="#fff" stroke-opacity="0" stroke-width="2" fill="#fff"/><path d="M1018.2 226.5h-17.52c-.48 0-.86.4-.86.87v6.13c0 .48.38.87.86.87h17.52c.48 0 .86-.4.86-.87v-6.13c0-.48-.38-.87-.86-.87zm-.9 6.13h-15.73v-4.38h15.74z" stroke="#fff" stroke-opacity="0" stroke-width="2" fill="#fff"/><use xlink:href="#h" transform="matrix(1,0,0,1,934.38125,271.809375) translate(34.60493827160494 17.77777777777778)"/><path d="M1102.2 200h65.6v65.62h-65.6V200z" stroke="#fff" stroke-opacity="0" stroke-width="2" fill="#cc2264"/><path d="M1149 227.56v-5.25c0-.47-.4-.86-.86-.86h-12.27v-1.84c1.76-.35 3.05-1.66 3.4-3.4.5-2.38-1.03-4.7-3.4-5.18-2.37-.48-4.66 1.05-5.17 3.42-.46 2.36 1.04 4.68 3.4 5.16v1.84h-12.22c-.5 0-.86.4-.86.87v3.5H1114c-.48 0-.87.4-.87.88v4.38c0 .48.4.87.86.87h7.02v1.75H1114c-.48 0-.87.4-.87.88v4.37c0 .48.4.88.86.88h7.02v3.5c0 .5.36.88.86.88h12.23v1.84c-1.75.35-3.04 1.66-3.4 3.4-.46 2.38 1.04 4.7 3.4 5.17 2.38.48 4.7-1.06 5.18-3.42.5-2.36-1.04-4.68-3.4-5.16v-1.84h12.26c.46 0 .86-.4.86-.87v-4.37h-1.76v3.5h-24.5v-2.62h7c.5 0 .9-.4.9-.87v-4.37c0-.48-.4-.88-.9-.88h-7v-1.75h7c.5 0 .9-.4.9-.87v-4.38c0-.48-.4-.87-.9-.87h-7v-2.6h24.5v4.36zm-11.37 22.75c0 1.45-1.2 2.63-2.62 2.63-1.46 0-2.6-1.18-2.6-2.62 0-1.44 1.14-2.62 2.6-2.62 1.44 0 2.63 1.18 2.63 2.63zm-8.76-14.87v2.63h-14v-2.63zm0-7.87v2.62h-14v-2.62zm3.52-12.25c0-1.43 1.14-2.6 2.6-2.6 1.44 0 2.63 1.17 2.63 2.6 0 1.45-1.2 2.64-2.62 2.64-1.46 0-2.6-1.2-2.6-2.63z" stroke="#fff" stroke-opacity="0" stroke-width="2" fill="#fff"/><path d="M1156 229.3h-17.5c-.5 0-.88.4-.88.88v6.13c0 .5.4.88.87.88h17.5c.5 0 .87-.4.87-.87v-6.12c0-.48-.38-.87-.86-.87zm-.88 6.14h-15.74v-4.38h15.74z" stroke="#fff" stroke-opacity="0" stroke-width="2" fill="#fff"/><use xlink:href="#i" transform="matrix(1,0,0,1,1072.1906250000002,274.61875000000003) translate(1.9506172839506206 17.77777777777778)"/><use xlink:href="#j" transform="matrix(1,0,0,1,1072.1906250000002,274.61875000000003) translate(87.01234567901234 17.77777777777778)"/><use xlink:href="#k" transform="matrix(1,0,0,1,1072.1906250000002,274.61875000000003) translate(2.228395061728392 44.44444444444444)"/><use xlink:href="#l" transform="matrix(1,0,0,1,1072.1906250000002,274.61875000000003) translate(59.635802469135804 44.44444444444444)"/><use xlink:href="#m" transform="matrix(1,0,0,1,1072.1906250000002,274.61875000000003) translate(84.32716049382717 44.44444444444444)"/><path d="M1140 642.52h80v80h-80v-80z" stroke="#fff" stroke-opacity="0" stroke-width="2" fill="#cc2264"/><path d="M1163.14 665.98c9.26-9.22 24.2-9.2 33.46.04 2.63 2.63 4.33 5.38 5.6 8.9l2-.7c-2.7-7.7-8.14-13.16-15.83-15.85-13.44-4.7-28.15 2.38-32.87 15.84l2 .7c1.26-3.52 2.97-6.3 5.64-8.92zM1196.55 699.06c-9.27 9.23-24.23 9.23-33.45 0-2.68-2.66-4.44-5.43-5.66-8.98l-2 .7c1.37 3.86 3.22 6.87 6.1 9.76 10.1 10.08 26.43 10.08 36.52.02 2.92-2.9 4.83-5.95 6.14-9.86l-2-.7c-1.22 3.6-2.97 6.38-5.65 9.06zM1161.5 682.48c0-1.73-.62-3.2-1.83-4.42-2.44-2.43-6.37-2.43-8.82 0-2.43 2.44-2.43 6.38 0 8.82 2.45 2.43 6.38 2.43 8.82 0 1.2-1.22 1.82-2.68 1.82-4.4zm-3.37 2.9c-1.62 1.53-4.15 1.53-5.77 0-1.6-1.6-1.58-4.2.03-5.8.77-.77 1.73-1.17 2.84-1.17 1.13 0 2.1.4 2.9 1.2 1.58 1.6 1.58 4.18 0 5.77zM1209.13 678.16c-2.44-2.43-6.36-2.43-8.8 0-2.42 2.43-2.42 6.35 0 8.8 2.44 2.4 6.36 2.4 8.8 0 2.42-2.45 2.42-6.37 0-8.8zm-1.52 7.27c-1.6 1.6-4.16 1.6-5.75 0-1.6-1.6-1.6-4.16 0-5.75 1.54-1.65 4.12-1.72 5.76-.18 1.64 1.54 1.7 4.12.17 5.76l-.16.17z" stroke="#fff" stroke-opacity="0" stroke-width="2" fill="#fff"/><path d="M1171.12 692.84c4.38-4.36 13.28-4.36 17.66 0 .2.2.45.32.75.32.6 0 1.06-.47 1.06-1.06 0-.3-.1-.56-.33-.77-2.25-2.5-3.32-5.43-3.2-8.8-.12-3.4.95-6.33 3.2-8.84.43-.42.43-1.1 0-1.5-.4-.43-1.08-.43-1.5 0-4.37 4.36-13.27 4.36-17.65 0-.4-.43-1.1-.43-1.5 0-.42.4-.42 1.08 0 1.5 2.3 2.5 3.37 5.43 3.25 8.82.12 3.38-.96 6.32-3.24 8.8-.2.22-.32.48-.32.78 0 .3.12.55.33.74.4.43 1.1.43 1.5 0zm2.77-16.37c4.05 1.58 8.05 1.58 12.12 0-1.56 4.07-1.56 8.03 0 12.1-4.07-1.58-8.07-1.58-12.13 0 1.54-4.07 1.54-8.03 0-12.1z" stroke="#fff" stroke-opacity="0" stroke-width="2" fill="#fff"/><path d="M1192.94 686.9l3.6-3.65c.4-.42.4-1.1 0-1.5l-3.62-3.62-1.52 1.5 1.82 1.82h-4.8v2.13h4.8l-1.8 1.8zM1167.15 686.9l3.65-3.63c.4-.42.4-1.1 0-1.5l-3.65-3.64-1.5 1.5 1.82 1.82h-4.66v2.13h4.67l-1.82 1.83z" stroke="#fff" stroke-opacity="0" stroke-width="2" fill="#fff"/><use xlink:href="#n" transform="matrix(1,0,0,1,1110,731.5238281249998) translate(7.932098765432102 17.77777777777778)"/><use xlink:href="#o" transform="matrix(1,0,0,1,1110,731.5238281249998) translate(65.40123456790124 17.77777777777778)"/><path d="M967.03 702.52c-8.12 0-21.07-1.84-21.23-6.82l-5.8-42.9c-.1-.73.33-1.4 1.03-1.55.7-.1 1.4.36 1.57 1.08.6 2.46 10.24 5.9 24.5 5.9 14.23 0 23.88-3.44 24.47-5.9.16-.72.87-1.18 1.57-1.08.7.15 1.14.82 1.03 1.54l-5.9 42.9c0 1.7-1.57 3.13-4.5 4.3-1.35.52-2.55.88-3.95 1.2-4.45.96-8.24 1.32-12.8 1.32zm-23.94-46.24l5.2 39.22v.15c0 1.54 7.3 4.36 18.68 4.36 4.33.06 7.96-.35 12.2-1.22 1.3-.3 2.37-.67 3.62-1.18 2.32-.92 2.87-1.74 2.87-2v-.15l5.25-39.17c-4.93 2.92-14.84 4.5-23.94 4.5-9.1 0-18.96-1.58-23.9-4.5z" stroke="#fff" stroke-opacity="0" fill="#3f8624"/><path d="M967.04 660.77c-12.1 0-25.68-2.74-26.98-7.8v-.71-.17c0-5.64 14.27-9.58 27.1-9.58 12.8 0 26.97 3.94 26.97 9.58v.17l-.05.52v.16c-1.4 5.07-14.98 7.8-27.04 7.8zm-24.5-8.4c.82 2.47 10.4 5.84 24.5 5.84 14.12 0 23.7-3.36 24.5-5.83v-.34c-.16-2.48-10.22-6.95-24.5-6.95-14.27 0-24.4 4.47-24.55 6.95zM994.17 678.42c-6.05 0-19.37-6-27.7-10.1l1.13-2.3c11.48 5.66 25.02 10.9 27.35 9.9-.2-.37-1.06-1.52-5.12-3.73l-.2-.14 1.28-2.22.2.12c4.1 2.25 6.05 4 6.4 5.63.12.7-.07 1.37-.53 1.93-.78.7-1.74 1.02-2.8.9z" stroke="#fff" stroke-opacity="0" fill="#3f8624"/><path d="M967.04 669.97c-1.53 0-2.77-1.24-2.77-2.77s1.24-2.77 2.77-2.77 2.77 1.24 2.77 2.77-1.23 2.76-2.76 2.77zm0-3c-.13 0-.23.1-.23.23 0 .24.46.24.46 0v-.03c0-.12-.1-.2-.22-.2z" stroke="#fff" stroke-opacity="0" fill="#3f8624"/><use xlink:href="#p" transform="matrix(1,0,0,1,910,711.5238281249998) translate(33.351851851851855 17.77777777777778)"/><use xlink:href="#b" transform="matrix(1,0,0,1,910,711.5238281249998) translate(25.04938271604938 44.44444444444444)"/><path d="M1470 832.56c0 15.9-13.44 28.8-30 28.8-16.56 0-30-12.9-30-28.8s13.44-28.82 30-28.82c16.56 0 30 12.9 30 28.82z" fill="#9d5025"/><path d="M1410 830.2h60v2.36h-60v-2.37z" fill="#9d5025"/><path d="M1470 830.2c0 15.9-13.44 28.8-30 28.8-16.56 0-30-12.9-30-28.8s13.44-28.82 30-28.82c16.56 0 30 12.9 30 28.82z" fill="#f58536"/><path d="M1459.5 844.36l-2.32-5.9-5.2 1.92-7.43-18.7-2.07-5.17-.98-2.44-1.5-3.83H1430.1v6.28h5.35l1.88 4.67-15.52 26.52h7.5l11.04-18.9 7.84 19.7 1.9-.7 4.2-1.53 5.2-1.9z" fill="#fff"/><use xlink:href="#q" transform="matrix(1,0,0,1,1410,861.3808593750003) translate(-5.493827160493822 17.77777777777778)"/><path d="M1470 713.13c0 15.9-13.44 28.82-30 28.82-16.56 0-30-12.9-30-28.82 0-15.9 13.44-28.8 30-28.8 16.56 0 30 12.9 30 28.8z" fill="#9d5025"/><path d="M1410 710.76h60v2.37h-60v-2.37z" fill="#9d5025"/><path d="M1470 710.77c0 15.9-13.44 28.8-30 28.8-16.56 0-30-12.9-30-28.8s13.44-28.82 30-28.82c16.56 0 30 12.9 30 28.82z" fill="#f58536"/><path d="M1459.5 724.93l-2.32-5.9-5.2 1.92-7.43-18.7-2.07-5.17-.98-2.45-1.5-3.83H1430.1v6.28h5.35l1.88 4.67-15.52 26.5h7.5l11.04-18.9 7.84 19.7 1.9-.67 4.2-1.53 5.2-1.92z" fill="#fff"/><use xlink:href="#q" transform="matrix(1,0,0,1,1410,741.9523437500001) translate(-5.493827160493822 17.77777777777778)"/><path d="M1470 593.7c0 15.9-13.44 28.82-30 28.82-16.56 0-30-12.9-30-28.82 0-15.9 13.44-28.8 30-28.8 16.56 0 30 12.9 30 28.8z" fill="#9d5025"/><path d="M1410 591.34h60v2.36h-60v-2.36z" fill="#9d5025"/><path d="M1470 591.34c0 15.9-13.44 28.8-30 28.8-16.56 0-30-12.9-30-28.8s13.44-28.82 30-28.82c16.56 0 30 12.9 30 28.82z" fill="#f58536"/><path d="M1459.5 605.5l-2.32-5.9-5.2 1.92-7.43-18.7-2.07-5.17-.98-2.45-1.5-3.83H1430.1v6.28h5.35l1.88 4.67-15.52 26.5h7.5l11.04-18.9 7.84 19.72 1.9-.7 4.2-1.52 5.2-1.92z" fill="#fff"/><use xlink:href="#q" transform="matrix(1,0,0,1,1410,622.5238281249998) translate(-5.493827160493822 17.77777777777778)"/><path d="M1470 474.27c0 15.9-13.44 28.82-30 28.82-16.56 0-30-12.92-30-28.83 0-15.9 13.44-28.8 30-28.8 16.56 0 30 12.9 30 28.8z" fill="#9d5025"/><path d="M1410 471.9h60v2.37h-60v-2.36z" fill="#9d5025"/><path d="M1470 471.9c0 15.92-13.44 28.83-30 28.83-16.56 0-30-12.9-30-28.82 0-15.9 13.44-28.8 30-28.8 16.56 0 30 12.9 30 28.8z" fill="#f58536"/><path d="M1459.5 486.08l-2.32-5.9-5.2 1.92-7.43-18.7-2.07-5.18-.98-2.45-1.5-3.82H1430.1v6.27h5.35l1.88 4.67-15.52 26.5h7.5l11.04-18.9 7.84 19.7 1.9-.68 4.2-1.53 5.2-1.92z" fill="#fff"/><use xlink:href="#q" transform="matrix(1,0,0,1,1410,503.0953124999995) translate(-5.493827160493822 17.77777777777778)"/><path d="M700 626.43h80v80h-80v-80z" stroke="#fff" stroke-opacity="0" stroke-width="2" fill="#693cc5"/><path d="M765.18 684.47l-4.85-4.9c2.93-4.4 4.26-8.92 4.26-14.2 0-14.14-11.42-25.6-25.56-25.6-10.08.05-18.67 5.43-23.04 14.56l1.92.9c5.6-11.68 19.63-16.6 31.3-11 8.33 4 13.3 11.86 13.3 21.14.05 4.7-1.13 8.7-3.7 12.64l-4.04-4.04c.27-.54.48-1.02.7-1.6 3.4-9.07-1.23-19.2-10.3-22.62-9.12-3.42-19.26 1.17-22.67 10.3h-7.03v2.13h6.45c-.27 1.12-.37 2.08-.37 3.2h-8.22v2.13h8.27c.1 1.12.27 2.08.6 3.2h-6.63v2.14h7.36c.27.58.54 1.06.86 1.65 4.68 8.47 15.4 11.46 23.88 6.76l3.9 3.9c-10.78 6.83-25.02 3.8-32.1-6.83l-1.77 1.17c7.85 11.74 23.64 14.94 35.42 7.2l4.9 4.9c2 2 5.2 2 7.16 0 1.97-1.96 1.97-5.16 0-7.13zm-26.08-3.15c-8.54 0-15.47-6.88-15.47-15.42 0-8.53 6.93-15.47 15.47-15.47 8.53 0 15.47 6.94 15.47 15.47 0 8.54-6.94 15.42-15.47 15.42zm24.53 8.8c-1.17 1.07-2.98 1.07-4.1 0l-10.03-10.08c1.65-1.23 2.88-2.5 4.05-4.27l10.08 10.14c1.18 1.18 1.18 3 .06 4.1-.07 0-.07 0-.07.07z" stroke="#fff" stroke-opacity="0" stroke-width="2" fill="#fff"/><path d="M748.94 667.44c-.47-1-1.1-1.75-2-2.4l.7-5.18v-.28-.16c0-2.53-5.58-3.47-9.1-3.47-3.5 0-9.05.94-9.05 3.47V659.86l1.78 13.27c.14 2.65 6.5 2.73 7.25 2.73 1.46 0 2.7-.12 4.12-.42.46-.12.87-.24 1.32-.42 1.17-.46 1.77-1.05 1.8-1.9l.56-4.13c.37.07.7.1 1.07.1.57.1 1.1-.17 1.37-.65.2-.3.27-.65.17-1zm-4.33-1.22c-1.35-.53-3-1.25-4.6-2-.2-.62-.75-1.04-1.4-1.04-.87 0-1.55.68-1.55 1.53s.68 1.52 1.52 1.54c.18 0 .33-.04.5-.1 1.8.9 3.36 1.58 5.25 2.25l-.58 4.4c-.16.1-.32.17-.5.25-.36.12-.67.22-1.06.3-1.25.28-2.34.38-3.63.38-1.85.1-3.45-.18-5.14-.94l-1.5-11.1c4.57 1.22 8.74 1.22 13.3 0zm-6.03-5.77c-2.42.12-4.46-.22-6.72-1.07 2.22-1.02 4.3-1.42 6.72-1.32 2.42-.1 4.5.3 6.73 1.32-2.26.85-4.33 1.2-6.73 1.07z" stroke="#fff" stroke-opacity="0" stroke-width="2" fill="#fff"/><use xlink:href="#r" transform="matrix(1,0,0,1,670,715.4285156249999) translate(29.29012345679012 17.77777777777778)"/><use xlink:href="#s" transform="matrix(1,0,0,1,670,715.4285156249999) translate(34.81481481481482 44.44444444444444)"/><path d="M497.23 233.8h-2.8v-2h2.8zm184.27 0h-22.74v-2h22.74z" fill="#5e5e5e"/><path fill="#5e5e5e"/><path d="M696.76 232.8l-14.26 4.64v-9.27z" fill="#5e5e5e"/><path d="M700 232.8l-18.5 6.02V226.8zm-16.5 3.27l10.03-3.26-10.03-3.25z" fill="#5e5e5e"/><use xlink:href="#t" transform="matrix(1,0,0,1,497.23356790123455,222.14270833333333) translate(0 14.222222222222223)"/><use xlink:href="#u" transform="matrix(1,0,0,1,497.23356790123455,222.14270833333333) translate(56.14814814814815 14.222222222222223)"/><use xlink:href="#v" transform="matrix(1,0,0,1,497.23356790123455,222.14270833333333) translate(130.0246913580247 14.222222222222223)"/><path d="M761 232.8h52.7" stroke="#5e5e5e" stroke-width="2" fill="none"/><path d="M761.03 233.8H760v-2h1.03z" fill="#5e5e5e"/><path d="M828.95 232.8l-14.26 4.64v-9.27z" stroke="#5e5e5e" stroke-width="2" fill="#5e5e5e"/><path d="M703.3 448.95h72.2v72.2h-72.2v-72.2z" stroke="#fff" stroke-opacity="0" stroke-width="2" fill="#3b48cc"/><path d="M751.68 487.92l-6.4 6.35c1.22-.34 2.2-.72 3.32-1.35.65.4 1 1 1.14 1.74 0 1.77-3.73 3.7-9.26 4.47-1.83.24-3.34.33-5.17.33h-.94c-7.8-.14-13.5-2.6-13.5-4.8.1-.73.5-1.3 1.15-1.74 3.03 1.7 7.94 2.7 13.3 2.7h.1l.56-1.93h-.65c-5.3 0-10.2-1.06-12.8-2.7-1.04-.67-1.63-1.44-1.63-2.07v-4.47c2.94 2.26 8.8 3.42 14.44 3.42.76 0 1.5 0 2.26-.05l.56-1.93c-.98.05-1.86.1-2.8.1-8.26 0-14.45-2.55-14.45-4.8.1-.78.5-1.36 1.14-1.74 2.67 1.5 6.76 2.4 11.37 2.64l.07-1.92c-4.55-.24-8.68-1.2-10.93-2.7-1.04-.62-1.6-1.4-1.63-2.06V471c2.94 2.26 8.8 3.4 14.44 3.4h.2l1.05-1.9h-1.24c-8.24 0-14.43-2.5-14.43-4.82 0-2.26 6.2-4.8 14.44-4.8 2.92 0 5.4.28 8.26.95h5.3c-2.9-1.78-7.9-2.88-13.55-2.88-7.92 0-16.36 2.35-16.36 6.73v7.74c.06 1.15.55 2.12 1.47 2.84-.9.77-1.4 1.73-1.46 2.88v7.7c.06 1.2.55 2.16 1.47 2.93-.9.72-1.4 1.68-1.46 2.9v7.88c.26 4.22 8.54 6.48 16.37 6.48 7.83 0 16.1-2.26 16.38-6.54v-7.9c-.04-1.15-.56-2.16-1.48-2.88.92-.72 1.4-1.73 1.48-2.88zm-1.94 14.43c0 2.26-6.18 4.8-14.43 4.8-8.24 0-14.43-2.5-14.43-4.8v-4.42c2.94 2.2 8.8 3.4 14.44 3.4 5.64 0 11.5-1.2 14.44-3.4z" stroke="#fff" stroke-opacity="0" stroke-width="2" fill="#fff"/><path d="M724.96 475.44c0 .67-.54 1.2-1.2 1.2-.67 0-1.2-.53-1.2-1.2 0-.66.53-1.2 1.2-1.2.66 0 1.2.54 1.2 1.2zM724.96 488.92c0 .66-.54 1.2-1.2 1.2-.67 0-1.2-.54-1.2-1.2 0-.67.53-1.2 1.2-1.2.66 0 1.2.53 1.2 1.2zM724.96 502.4c0 .66-.54 1.2-1.2 1.2-.67 0-1.2-.54-1.2-1.2 0-.67.53-1.2 1.2-1.2.66 0 1.2.53 1.2 1.2zM737.7 498.5c-.17 0-.3-.03-.48-.13-.4-.23-.55-.68-.43-1.1l5.4-18.03h-5.46c-.53.04-.97-.4-.97-.95 0-.17.03-.33.12-.47l5.76-11.56c.17-.33.48-.52.87-.52h12.52c.53-.04.96.4.98.9.03.15 0 .24-.02.37l-2.47 7.38h5.4c.53.03.96.45.96.98 0 .26-.1.46-.27.65l-21.18 22.15c-.2.23-.43.32-.75.32zm.6-21.16h5.2c.3 0 .57.13.76.36.17.27.25.56.15.86l-4.62 15.4 16.86-17.6h-4.5c-.52 0-.98-.4-1-.92 0-.13 0-.26.05-.36l2.45-7.4h-10.6z" stroke="#fff" stroke-opacity="0" stroke-width="2" fill="#fff"/><use xlink:href="#r" transform="matrix(1,0,0,1,673.3,530.1429687499995) translate(25.79012345679012 17.77777777777778)"/><use xlink:href="#w" transform="matrix(1,0,0,1,673.3,530.1429687499995) translate(9.802469135802468 44.44444444444444)"/><path d="M940 362.5v116.55c0 3.3-2.7 6-6 6H794" stroke="#5e5e5e" stroke-width="2" fill="none"/><path d="M941 362.53h-2v-1.03h2z" fill="#5e5e5e"/><path d="M778.73 485.05L793 480.4v9.28z" stroke="#5e5e5e" stroke-width="2" fill="#5e5e5e"/><path d="M1012.63 673.52h-16.6v-2h16.6zm108.87 0h-24.13v-2h24.13z" fill="#5e5e5e"/><path fill="#5e5e5e"/><path d="M1136.76 672.52l-14.26 4.64v-9.27z" fill="#5e5e5e"/><path d="M1140 672.52l-18.5 6.02V666.5zm-16.5 3.26l10.03-3.26-10.03-3.26z" fill="#5e5e5e"/><use xlink:href="#x" transform="matrix(1,0,0,1,1012.6338233195677,661.8571614583332) translate(0 14.222222222222223)"/><use xlink:href="#y" transform="matrix(1,0,0,1,1012.6338233195677,661.8571614583332) translate(15.753086419753087 14.222222222222223)"/><path d="M798.5 666.43h124.84" stroke="#5e5e5e" stroke-width="2" fill="none"/><path d="M783.24 666.43l14.26-4.64v9.26zM938.6 666.43l-14.26 4.63v-9.27z" stroke="#5e5e5e" stroke-width="2" fill="#5e5e5e"/><path d="M823.2 591h-77.07l-2.64.7-1.8 1.8-.7 2.63v11.8h-2v-12.06l.92-3.42 2.53-2.53 3.42-.92h77.34zM941 579.33h-2V362.5h2z" fill="#5e5e5e"/><path d="M941 362.53h-2v-1.03h2zM740 623.2l-4.64-14.27h9.28z" fill="#5e5e5e"/><path d="M740 626.43l-6-18.5h12zm-3.26-16.5l3.26 10.03 3.26-10.03z" fill="#5e5e5e"/><use xlink:href="#z" transform="matrix(1,0,0,1,823.2098765432099,579.3333333333334) translate(0 14.222222222222223)"/><use xlink:href="#A" transform="matrix(1,0,0,1,823.2098765432099,579.3333333333334) translate(60.14814814814816 14.222222222222223)"/><use xlink:href="#B" transform="matrix(1,0,0,1,823.2098765432099,579.3333333333334) translate(106.46913580246915 14.222222222222223)"/><use xlink:href="#C" transform="matrix(1,0,0,1,823.2098765432099,579.3333333333334) translate(135.01234567901236 14.222222222222223)"/><path d="M893.2 230h52.68" stroke="#5e5e5e" stroke-width="2" fill="none"/><path d="M893.22 231h-1.03v-2h1.02z" fill="#5e5e5e"/><path d="M961.15 230l-14.27 4.64v-9.28z" stroke="#5e5e5e" stroke-width="2" fill="#5e5e5e"/><path d="M1031 230h52.7" stroke="#5e5e5e" stroke-width="2" fill="none"/><path d="M1031.03 231H1030v-2h1.03z" fill="#5e5e5e"/><path d="M1098.95 230l-14.26 4.64v-9.28z" stroke="#5e5e5e" stroke-width="2" fill="#5e5e5e"/><path d="M1320 386c0-3.3 2.7-6 6-6h228c3.3 0 6 2.7 6 6v508c0 3.3-2.7 6-6 6h-228c-3.3 0-6-2.7-6-6z" fill="#5a6c86" fill-opacity=".13"/><g><use xlink:href="#D" transform="matrix(1,0,0,1,1320,400) translate(36.172839506172835 17.77777777777778)"/><use xlink:href="#E" transform="matrix(1,0,0,1,1320,400) translate(124.44444444444443 17.77777777777778)"/></g><path d="M1221 682.52h80.5" stroke="#5e5e5e" stroke-width="2" fill="none"/><path d="M1221.03 683.52H1220v-2h1.03z" fill="#5e5e5e"/><path d="M1316.76 682.52l-14.26 4.64v-9.27z" stroke="#5e5e5e" stroke-width="2" fill="#5e5e5e"/><path d="M1065.48 485H958.5v-2h106.98zm253.52 0h-124.48v-2H1319z" fill="#5e5e5e"/><path d="M1320 485h-1.03v-2h1.03zM957.5 488.64L943.24 484l14.26-4.64z" fill="#5e5e5e"/><path d="M958.5 490l-18.5-6 18.5-6zm-12.03-6l10.03 3.26v-6.52z" fill="#5e5e5e"/><g><use xlink:href="#F" transform="matrix(1,0,0,1,1065.4814814814815,473.3333333333333) translate(0 14.222222222222223)"/><use xlink:href="#G" transform="matrix(1,0,0,1,1065.4814814814815,473.3333333333333) translate(59.111111111111114 14.222222222222223)"/></g><path d="M969.76 933.87l.72 2.64 1.77 1.8 2.65.7h168.72v2h-169l-3.4-.92-2.53-2.53-.94-3.42V720.85h2zm471.24.26l-.92 3.42-2.53 2.53-3.42.92h-87.08v-2h86.82l2.64-.7 1.8-1.8.7-2.63V901h2z" fill="#5e5e5e"/><path d="M1441 901.03h-2V900h2zM973.4 719.85h-9.27l4.63-14.27z" fill="#5e5e5e"/><path d="M974.77 720.85h-12.02l6-18.5zm-9.27-2h6.52l-3.26-10.03z" fill="#5e5e5e"/><g><use xlink:href="#H" transform="matrix(1,0,0,1,1143.617283950617,925.3333333333334) translate(0 19.555555555555557)"/><use xlink:href="#I" transform="matrix(1,0,0,1,1143.617283950617,925.3333333333334) translate(130.09876543209876 19.555555555555557)"/></g><defs><path fill="#333" d="M33 0v-248h34V0H33" id="J"/><path fill="#333" d="M117-194c89-4 53 116 60 194h-32v-121c0-31-8-49-39-48C34-167 62-67 57 0H25l-1-190h30c1 10-1 24 2 32 11-22 29-35 61-36" id="K"/><path fill="#333" d="M96-169c-40 0-48 33-48 73s9 75 48 75c24 0 41-14 43-38l32 2c-6 37-31 61-74 61-59 0-76-41-82-99-10-93 101-131 147-64 4 7 5 14 7 22l-32 3c-4-21-16-35-41-35" id="L"/><path fill="#333" d="M100-194c62-1 85 37 85 99 1 63-27 99-86 99S16-35 15-95c0-66 28-99 85-99zM99-20c44 1 53-31 53-75 0-43-8-75-51-75s-53 32-53 75 10 74 51 75" id="M"/><path fill="#333" d="M210-169c-67 3-38 105-44 169h-31v-121c0-29-5-50-35-48C34-165 62-65 56 0H25l-1-190h30c1 10-1 24 2 32 10-44 99-50 107 0 11-21 27-35 58-36 85-2 47 119 55 194h-31v-121c0-29-5-49-35-48" id="N"/><path fill="#333" d="M24-231v-30h32v30H24zM24 0v-190h32V0H24" id="O"/><path fill="#333" d="M177-190C167-65 218 103 67 71c-23-6-38-20-44-43l32-5c15 47 100 32 89-28v-30C133-14 115 1 83 1 29 1 15-40 15-95c0-56 16-97 71-98 29-1 48 16 59 35 1-10 0-23 2-32h30zM94-22c36 0 50-32 50-73 0-42-14-75-50-75-39 0-46 34-46 75s6 73 46 73" id="P"/><g id="a"><use transform="matrix(0.06172839506172839,0,0,0.06172839506172839,0,0)" xlink:href="#J"/><use transform="matrix(0.06172839506172839,0,0,0.06172839506172839,6.172839506172839,0)" xlink:href="#K"/><use transform="matrix(0.06172839506172839,0,0,0.06172839506172839,18.51851851851852,0)" xlink:href="#L"/><use transform="matrix(0.06172839506172839,0,0,0.06172839506172839,29.62962962962963,0)" xlink:href="#M"/><use transform="matrix(0.06172839506172839,0,0,0.06172839506172839,41.97530864197531,0)" xlink:href="#N"/><use transform="matrix(0.06172839506172839,0,0,0.06172839506172839,60.4320987654321,0)" xlink:href="#O"/><use transform="matrix(0.06172839506172839,0,0,0.06172839506172839,65.30864197530865,0)" xlink:href="#K"/><use transform="matrix(0.06172839506172839,0,0,0.06172839506172839,77.65432098765433,0)" xlink:href="#P"/></g><path fill="#333" d="M160-131c35 5 61 23 61 61C221 17 115-2 30 0v-248c76 3 177-17 177 60 0 33-19 50-47 57zm-97-11c50-1 110 9 110-42 0-47-63-36-110-37v79zm0 115c55-2 124 14 124-45 0-56-70-42-124-44v89" id="Q"/><path fill="#333" d="M84 4C-5 8 30-112 23-190h32v120c0 31 7 50 39 49 72-2 45-101 50-169h31l1 190h-30c-1-10 1-25-2-33-11 22-28 36-60 37" id="R"/><path fill="#333" d="M143 0L79-87 56-68V0H24v-261h32v163l83-92h37l-77 82L181 0h-38" id="S"/><path fill="#333" d="M100-194c63 0 86 42 84 106H49c0 40 14 67 53 68 26 1 43-12 49-29l28 8c-11 28-37 45-77 45C44 4 14-33 15-96c1-61 26-98 85-98zm52 81c6-60-76-77-97-28-3 7-6 17-6 28h103" id="T"/><path fill="#333" d="M59-47c-2 24 18 29 38 22v24C64 9 27 4 27-40v-127H5v-23h24l9-43h21v43h35v23H59v120" id="U"/><g id="b"><use transform="matrix(0.06172839506172839,0,0,0.06172839506172839,0,0)" xlink:href="#Q"/><use transform="matrix(0.06172839506172839,0,0,0.06172839506172839,14.814814814814813,0)" xlink:href="#R"/><use transform="matrix(0.06172839506172839,0,0,0.06172839506172839,27.160493827160494,0)" xlink:href="#L"/><use transform="matrix(0.06172839506172839,0,0,0.06172839506172839,38.27160493827161,0)" xlink:href="#S"/><use transform="matrix(0.06172839506172839,0,0,0.06172839506172839,49.38271604938272,0)" xlink:href="#T"/><use transform="matrix(0.06172839506172839,0,0,0.06172839506172839,61.7283950617284,0)" xlink:href="#U"/></g><path fill="#333" d="M205 0l-28-72H64L36 0H1l101-248h38L239 0h-34zm-38-99l-47-123c-12 45-31 82-46 123h93" id="V"/><path fill="#333" d="M266 0h-40l-56-210L115 0H75L2-248h35L96-30l15-64 43-154h32l59 218 59-218h35" id="W"/><path fill="#333" d="M185-189c-5-48-123-54-124 2 14 75 158 14 163 119 3 78-121 87-175 55-17-10-28-26-33-46l33-7c5 56 141 63 141-1 0-78-155-14-162-118-5-82 145-84 179-34 5 7 8 16 11 25" id="X"/><g id="c"><use transform="matrix(0.06172839506172839,0,0,0.06172839506172839,0,0)" xlink:href="#V"/><use transform="matrix(0.06172839506172839,0,0,0.06172839506172839,14.012345679012345,0)" xlink:href="#W"/><use transform="matrix(0.06172839506172839,0,0,0.06172839506172839,34.938271604938265,0)" xlink:href="#X"/></g><path fill="#333" d="M115-194c55 1 70 41 70 98S169 2 115 4C84 4 66-9 55-30l1 105H24l-1-265h31l2 30c10-21 28-34 59-34zm-8 174c40 0 45-34 45-75s-6-73-45-74c-42 0-51 32-51 76 0 43 10 73 51 73" id="Y"/><g id="d"><use transform="matrix(0.06172839506172839,0,0,0.06172839506172839,0,0)" xlink:href="#X"/><use transform="matrix(0.06172839506172839,0,0,0.06172839506172839,14.814814814814813,0)" xlink:href="#U"/><use transform="matrix(0.06172839506172839,0,0,0.06172839506172839,20.98765432098765,0)" xlink:href="#T"/><use transform="matrix(0.06172839506172839,0,0,0.06172839506172839,33.33333333333333,0)" xlink:href="#Y"/></g><path fill="#333" d="M63-220v92h138v28H63V0H30v-248h175v28H63" id="Z"/><path fill="#333" d="M135-143c-3-34-86-38-87 0 15 53 115 12 119 90S17 21 10-45l28-5c4 36 97 45 98 0-10-56-113-15-118-90-4-57 82-63 122-42 12 7 21 19 24 35" id="aa"/><g id="e"><use transform="matrix(0.06172839506172839,0,0,0.06172839506172839,0,0)" xlink:href="#Z"/><use transform="matrix(0.06172839506172839,0,0,0.06172839506172839,13.518518518518517,0)" xlink:href="#R"/><use transform="matrix(0.06172839506172839,0,0,0.06172839506172839,25.864197530864196,0)" xlink:href="#K"/><use transform="matrix(0.06172839506172839,0,0,0.06172839506172839,38.20987654320987,0)" xlink:href="#L"/><use transform="matrix(0.06172839506172839,0,0,0.06172839506172839,49.32098765432099,0)" xlink:href="#U"/><use transform="matrix(0.06172839506172839,0,0,0.06172839506172839,55.49382716049383,0)" xlink:href="#O"/><use transform="matrix(0.06172839506172839,0,0,0.06172839506172839,60.370370370370374,0)" xlink:href="#M"/><use transform="matrix(0.06172839506172839,0,0,0.06172839506172839,72.71604938271605,0)" xlink:href="#K"/><use transform="matrix(0.06172839506172839,0,0,0.06172839506172839,85.06172839506173,0)" xlink:href="#aa"/></g><path fill="#333" d="M212-179c-10-28-35-45-73-45-59 0-87 40-87 99 0 60 29 101 89 101 43 0 62-24 78-52l27 14C228-24 195 4 139 4 59 4 22-46 18-125c-6-104 99-153 187-111 19 9 31 26 39 46" id="ab"/><path fill="#333" d="M108 0H70L1-190h34L89-25l56-165h34" id="ac"/><path fill="#333" d="M114-163C36-179 61-72 57 0H25l-1-190h30c1 12-1 29 2 39 6-27 23-49 58-41v29" id="ad"/><g id="f"><use transform="matrix(0.06172839506172839,0,0,0.06172839506172839,0,0)" xlink:href="#ab"/><use transform="matrix(0.06172839506172839,0,0,0.06172839506172839,15.987654320987653,0)" xlink:href="#M"/><use transform="matrix(0.06172839506172839,0,0,0.06172839506172839,28.333333333333332,0)" xlink:href="#K"/><use transform="matrix(0.06172839506172839,0,0,0.06172839506172839,40.67901234567901,0)" xlink:href="#ac"/><use transform="matrix(0.06172839506172839,0,0,0.06172839506172839,51.79012345679013,0)" xlink:href="#T"/><use transform="matrix(0.06172839506172839,0,0,0.06172839506172839,64.13580246913581,0)" xlink:href="#ad"/><use transform="matrix(0.06172839506172839,0,0,0.06172839506172839,71.4814814814815,0)" xlink:href="#U"/></g><path fill="#333" d="M30-248c87 1 191-15 191 75 0 78-77 80-158 76V0H30v-248zm33 125c57 0 124 11 124-50 0-59-68-47-124-48v98" id="ae"/><path fill="#333" d="M141-36C126-15 110 5 73 4 37 3 15-17 15-53c-1-64 63-63 125-63 3-35-9-54-41-54-24 1-41 7-42 31l-33-3c5-37 33-52 76-52 45 0 72 20 72 64v82c-1 20 7 32 28 27v20c-31 9-61-2-59-35zM48-53c0 20 12 33 32 33 41-3 63-29 60-74-43 2-92-5-92 41" id="af"/><g id="g"><use transform="matrix(0.06172839506172839,0,0,0.06172839506172839,0,0)" xlink:href="#ae"/><use transform="matrix(0.06172839506172839,0,0,0.06172839506172839,14.814814814814813,0)" xlink:href="#ad"/><use transform="matrix(0.06172839506172839,0,0,0.06172839506172839,22.160493827160494,0)" xlink:href="#T"/><use transform="matrix(0.06172839506172839,0,0,0.06172839506172839,34.50617283950617,0)" xlink:href="#Y"/><use transform="matrix(0.06172839506172839,0,0,0.06172839506172839,46.85185185185185,0)" xlink:href="#af"/><use transform="matrix(0.06172839506172839,0,0,0.06172839506172839,59.197530864197525,0)" xlink:href="#ad"/><use transform="matrix(0.06172839506172839,0,0,0.06172839506172839,66.5432098765432,0)" xlink:href="#T"/></g><path fill="#333" d="M106-169C34-169 62-67 57 0H25v-261h32l-1 103c12-21 28-36 61-36 89 0 53 116 60 194h-32v-121c2-32-8-49-39-48" id="ag"/><g id="h"><use transform="matrix(0.06172839506172839,0,0,0.06172839506172839,0,0)" xlink:href="#Q"/><use transform="matrix(0.06172839506172839,0,0,0.06172839506172839,14.814814814814813,0)" xlink:href="#af"/><use transform="matrix(0.06172839506172839,0,0,0.06172839506172839,27.160493827160494,0)" xlink:href="#U"/><use transform="matrix(0.06172839506172839,0,0,0.06172839506172839,33.333333333333336,0)" xlink:href="#L"/><use transform="matrix(0.06172839506172839,0,0,0.06172839506172839,44.44444444444444,0)" xlink:href="#ag"/></g><g id="i"><use transform="matrix(0.06172839506172839,0,0,0.06172839506172839,0,0)" xlink:href="#ae"/><use transform="matrix(0.06172839506172839,0,0,0.06172839506172839,14.814814814814813,0)" xlink:href="#ad"/><use transform="matrix(0.06172839506172839,0,0,0.06172839506172839,22.160493827160494,0)" xlink:href="#T"/><use transform="matrix(0.06172839506172839,0,0,0.06172839506172839,34.50617283950617,0)" xlink:href="#Y"/><use transform="matrix(0.06172839506172839,0,0,0.06172839506172839,46.85185185185185,0)" xlink:href="#af"/><use transform="matrix(0.06172839506172839,0,0,0.06172839506172839,59.197530864197525,0)" xlink:href="#ad"/><use transform="matrix(0.06172839506172839,0,0,0.06172839506172839,66.5432098765432,0)" xlink:href="#T"/></g><path fill="#333" d="M85-194c31 0 48 13 60 33l-1-100h32l1 261h-30c-2-10 0-23-3-31C134-8 116 4 85 4 32 4 16-35 15-94c0-66 23-100 70-100zm9 24c-40 0-46 34-46 75 0 40 6 74 45 74 42 0 51-32 51-76 0-42-9-74-50-73" id="ah"/><g id="j"><use transform="matrix(0.06172839506172839,0,0,0.06172839506172839,0,0)" xlink:href="#af"/><use transform="matrix(0.06172839506172839,0,0,0.06172839506172839,12.345679012345679,0)" xlink:href="#K"/><use transform="matrix(0.06172839506172839,0,0,0.06172839506172839,24.691358024691358,0)" xlink:href="#ah"/></g><g id="k"><use transform="matrix(0.06172839506172839,0,0,0.06172839506172839,0,0)" xlink:href="#W"/><use transform="matrix(0.06172839506172839,0,0,0.06172839506172839,20.493827160493826,0)" xlink:href="#ad"/><use transform="matrix(0.06172839506172839,0,0,0.06172839506172839,27.839506172839506,0)" xlink:href="#O"/><use transform="matrix(0.06172839506172839,0,0,0.06172839506172839,32.71604938271605,0)" xlink:href="#U"/><use transform="matrix(0.06172839506172839,0,0,0.06172839506172839,38.88888888888889,0)" xlink:href="#T"/></g><g id="l"><use transform="matrix(0.06172839506172839,0,0,0.06172839506172839,0,0)" xlink:href="#U"/><use transform="matrix(0.06172839506172839,0,0,0.06172839506172839,6.172839506172839,0)" xlink:href="#M"/></g><path fill="#333" d="M143 4C61 4 22-44 18-125c-5-107 100-154 193-111 17 8 29 25 37 43l-32 9c-13-25-37-40-76-40-61 0-88 39-88 99 0 61 29 100 91 101 35 0 62-11 79-27v-45h-74v-28h105v86C228-13 192 4 143 4" id="ai"/><path fill="#333" d="M232-93c-1 65-40 97-104 97C67 4 28-28 28-90v-158h33c8 89-33 224 67 224 102 0 64-133 71-224h33v155" id="aj"/><g id="m"><use transform="matrix(0.06172839506172839,0,0,0.06172839506172839,0,0)" xlink:href="#ai"/><use transform="matrix(0.06172839506172839,0,0,0.06172839506172839,17.28395061728395,0)" xlink:href="#aj"/><use transform="matrix(0.06172839506172839,0,0,0.06172839506172839,33.2716049382716,0)" xlink:href="#J"/></g><g id="n"><use transform="matrix(0.06172839506172839,0,0,0.06172839506172839,0,0)" xlink:href="#W"/><use transform="matrix(0.06172839506172839,0,0,0.06172839506172839,20.493827160493826,0)" xlink:href="#M"/><use transform="matrix(0.06172839506172839,0,0,0.06172839506172839,32.839506172839506,0)" xlink:href="#ad"/><use transform="matrix(0.06172839506172839,0,0,0.06172839506172839,40.18518518518518,0)" xlink:href="#S"/></g><path fill="#333" d="M140-251c81 0 123 46 123 126C263-53 228-8 163 1c7 30 30 48 69 40v23c-55 16-95-15-103-61C56-3 17-48 17-125c0-80 42-126 123-126zm0 227c63 0 89-41 89-101s-29-99-89-99c-61 0-89 39-89 99S79-25 140-24" id="ak"/><g id="o"><use transform="matrix(0.06172839506172839,0,0,0.06172839506172839,0,0)" xlink:href="#ak"/><use transform="matrix(0.06172839506172839,0,0,0.06172839506172839,17.28395061728395,0)" xlink:href="#R"/><use transform="matrix(0.06172839506172839,0,0,0.06172839506172839,29.629629629629626,0)" xlink:href="#T"/><use transform="matrix(0.06172839506172839,0,0,0.06172839506172839,41.9753086419753,0)" xlink:href="#R"/><use transform="matrix(0.06172839506172839,0,0,0.06172839506172839,54.32098765432098,0)" xlink:href="#T"/></g><g id="p"><use transform="matrix(0.06172839506172839,0,0,0.06172839506172839,0,0)" xlink:href="#W"/><use transform="matrix(0.06172839506172839,0,0,0.06172839506172839,20.493827160493826,0)" xlink:href="#M"/><use transform="matrix(0.06172839506172839,0,0,0.06172839506172839,32.839506172839506,0)" xlink:href="#ad"/><use transform="matrix(0.06172839506172839,0,0,0.06172839506172839,40.18518518518518,0)" xlink:href="#S"/></g><g id="q"><use transform="matrix(0.06172839506172839,0,0,0.06172839506172839,0,0)" xlink:href="#W"/><use transform="matrix(0.06172839506172839,0,0,0.06172839506172839,20.493827160493826,0)" xlink:href="#M"/><use transform="matrix(0.06172839506172839,0,0,0.06172839506172839,32.839506172839506,0)" xlink:href="#ad"/><use transform="matrix(0.06172839506172839,0,0,0.06172839506172839,40.18518518518518,0)" xlink:href="#S"/><use transform="matrix(0.06172839506172839,0,0,0.06172839506172839,51.29629629629629,0)" xlink:href="#T"/><use transform="matrix(0.06172839506172839,0,0,0.06172839506172839,63.641975308641975,0)" xlink:href="#ad"/></g><path fill="#333" d="M9 0v-24l116-142H16v-24h144v24L44-24h123V0H9" id="al"/><g id="r"><use transform="matrix(0.06172839506172839,0,0,0.06172839506172839,0,0)" xlink:href="#V"/><use transform="matrix(0.06172839506172839,0,0,0.06172839506172839,14.814814814814813,0)" xlink:href="#N"/><use transform="matrix(0.06172839506172839,0,0,0.06172839506172839,33.2716049382716,0)" xlink:href="#af"/><use transform="matrix(0.06172839506172839,0,0,0.06172839506172839,45.61728395061728,0)" xlink:href="#al"/><use transform="matrix(0.06172839506172839,0,0,0.06172839506172839,56.72839506172839,0)" xlink:href="#M"/><use transform="matrix(0.06172839506172839,0,0,0.06172839506172839,69.07407407407408,0)" xlink:href="#K"/></g><g id="s"><use transform="matrix(0.06172839506172839,0,0,0.06172839506172839,0,0)" xlink:href="#V"/><use transform="matrix(0.06172839506172839,0,0,0.06172839506172839,14.814814814814813,0)" xlink:href="#U"/><use transform="matrix(0.06172839506172839,0,0,0.06172839506172839,20.98765432098765,0)" xlink:href="#ag"/><use transform="matrix(0.06172839506172839,0,0,0.06172839506172839,33.33333333333333,0)" xlink:href="#T"/><use transform="matrix(0.06172839506172839,0,0,0.06172839506172839,45.679012345679006,0)" xlink:href="#K"/><use transform="matrix(0.06172839506172839,0,0,0.06172839506172839,58.02469135802468,0)" xlink:href="#af"/></g><path fill="#333" d="M230 0l2-204L168 0h-37L68-204 70 0H24v-248h70l56 185 57-185h69V0h-46" id="am"/><path fill="#333" d="M110-194c64 0 96 36 96 99 0 64-35 99-97 99-61 0-95-36-95-99 0-62 34-99 96-99zm-1 164c35 0 45-28 45-65 0-40-10-65-43-65-34 0-45 26-45 65 0 36 10 65 43 65" id="an"/><path fill="#333" d="M88-194c31-1 46 15 58 34l-1-101h50l1 261h-48c-2-10 0-23-3-31C134-8 116 4 84 4 32 4 16-41 15-95c0-56 19-97 73-99zm17 164c33 0 40-30 41-66 1-37-9-64-41-64s-38 30-39 65c0 43 13 65 39 65" id="ao"/><path fill="#333" d="M185-48c-13 30-37 53-82 52C43 2 14-33 14-96s30-98 90-98c62 0 83 45 84 108H66c0 31 8 55 39 56 18 0 30-7 34-22zm-45-69c5-46-57-63-70-21-2 6-4 13-4 21h74" id="ap"/><path fill="#333" d="M25 0v-261h50V0H25" id="aq"/><g id="t"><use transform="matrix(0.04938271604938272,0,0,0.04938271604938272,0,0)" xlink:href="#am"/><use transform="matrix(0.04938271604938272,0,0,0.04938271604938272,14.765432098765434,0)" xlink:href="#an"/><use transform="matrix(0.04938271604938272,0,0,0.04938271604938272,25.58024691358025,0)" xlink:href="#ao"/><use transform="matrix(0.04938271604938272,0,0,0.04938271604938272,36.39506172839506,0)" xlink:href="#ap"/><use transform="matrix(0.04938271604938272,0,0,0.04938271604938272,46.27160493827161,0)" xlink:href="#aq"/></g><path fill="#333" d="M136-208V0H84v-208H4v-40h212v40h-80" id="ar"/><path fill="#333" d="M135-150c-39-12-60 13-60 57V0H25l-1-190h47c2 13-1 29 3 40 6-28 27-53 61-41v41" id="as"/><path fill="#333" d="M133-34C117-15 103 5 69 4 32 3 11-16 11-54c-1-60 55-63 116-61 1-26-3-47-28-47-18 1-26 9-28 27l-52-2c7-38 36-58 82-57s74 22 75 68l1 82c-1 14 12 18 25 15v27c-30 8-71 5-69-32zm-48 3c29 0 43-24 42-57-32 0-66-3-65 30 0 17 8 27 23 27" id="at"/><path fill="#333" d="M25-224v-37h50v37H25zM25 0v-190h50V0H25" id="au"/><path fill="#333" d="M135-194c87-1 58 113 63 194h-50c-7-57 23-157-34-157-59 0-34 97-39 157H25l-1-190h47c2 12-1 28 3 38 12-26 28-41 61-42" id="av"/><path fill="#333" d="M195-6C206 82 75 100 31 46c-4-6-6-13-8-21l49-6c3 16 16 24 34 25 40 0 42-37 40-79-11 22-30 35-61 35-53 0-70-43-70-97 0-56 18-96 73-97 30 0 46 14 59 34l2-30h47zm-90-29c32 0 41-27 41-63 0-35-9-62-40-62-32 0-39 29-40 63 0 36 9 62 39 62" id="aw"/><g id="u"><use transform="matrix(0.04938271604938272,0,0,0.04938271604938272,0,0)" xlink:href="#ar"/><use transform="matrix(0.04938271604938272,0,0,0.04938271604938272,9.82716049382716,0)" xlink:href="#as"/><use transform="matrix(0.04938271604938272,0,0,0.04938271604938272,16.74074074074074,0)" xlink:href="#at"/><use transform="matrix(0.04938271604938272,0,0,0.04938271604938272,26.617283950617285,0)" xlink:href="#au"/><use transform="matrix(0.04938271604938272,0,0,0.04938271604938272,31.555555555555557,0)" xlink:href="#av"/><use transform="matrix(0.04938271604938272,0,0,0.04938271604938272,42.370370370370374,0)" xlink:href="#au"/><use transform="matrix(0.04938271604938272,0,0,0.04938271604938272,47.308641975308646,0)" xlink:href="#av"/><use transform="matrix(0.04938271604938272,0,0,0.04938271604938272,58.12345679012346,0)" xlink:href="#aw"/></g><path fill="#333" d="M176-78C186 10 51 31 16-35c-5-9-9-19-11-32l52-8c4 21 12 37 35 38 23 0 32-16 32-40v-130H75v-41h101v170" id="ax"/><path fill="#333" d="M135-194c52 0 70 43 70 98 0 56-19 99-73 100-30 1-46-15-58-35L72 0H24l1-261h50v104c11-23 29-37 60-37zM114-30c31 0 40-27 40-66 0-37-7-63-39-63s-41 28-41 65c0 36 8 64 40 64" id="ay"/><g id="v"><use transform="matrix(0.04938271604938272,0,0,0.04938271604938272,0,0)" xlink:href="#ax"/><use transform="matrix(0.04938271604938272,0,0,0.04938271604938272,9.876543209876544,0)" xlink:href="#an"/><use transform="matrix(0.04938271604938272,0,0,0.04938271604938272,20.69135802469136,0)" xlink:href="#ay"/></g><path fill="#333" d="M30-248c118-7 216 8 213 122C240-48 200 0 122 0H30v-248zM63-27c89 8 146-16 146-99s-60-101-146-95v194" id="az"/><path fill="#333" d="M179-190L93 31C79 59 56 82 12 73V49c39 6 53-20 64-50L1-190h34L92-34l54-156h33" id="aA"/><g id="w"><use transform="matrix(0.06172839506172839,0,0,0.06172839506172839,0,0)" xlink:href="#az"/><use transform="matrix(0.06172839506172839,0,0,0.06172839506172839,15.987654320987653,0)" xlink:href="#aA"/><use transform="matrix(0.06172839506172839,0,0,0.06172839506172839,27.098765432098766,0)" xlink:href="#K"/><use transform="matrix(0.06172839506172839,0,0,0.06172839506172839,39.44444444444444,0)" xlink:href="#af"/><use transform="matrix(0.06172839506172839,0,0,0.06172839506172839,51.79012345679012,0)" xlink:href="#N"/><use transform="matrix(0.06172839506172839,0,0,0.06172839506172839,70.24691358024691,0)" xlink:href="#M"/><use transform="matrix(0.06172839506172839,0,0,0.06172839506172839,82.5925925925926,0)" xlink:href="#az"/><use transform="matrix(0.06172839506172839,0,0,0.06172839506172839,98.58024691358025,0)" xlink:href="#Q"/></g><use transform="matrix(0.04938271604938272,0,0,0.04938271604938272,0,0)" xlink:href="#av" id="x"/><path fill="#333" d="M182-130c37 4 62 22 62 59C244 23 116-4 24 0v-248c84 5 203-23 205 63 0 31-19 50-47 55zM76-148c40-3 101 13 101-30 0-44-60-28-101-31v61zm0 110c48-3 116 14 116-37 0-48-69-32-116-35v72" id="aB"/><path fill="#333" d="M115-3C79 11 28 4 28-45v-112H4v-33h27l15-45h31v45h36v33H77v99c-1 23 16 31 38 25v30" id="aC"/><path fill="#333" d="M190-63c-7 42-38 67-86 67-59 0-84-38-90-98-12-110 154-137 174-36l-49 2c-2-19-15-32-35-32-30 0-35 28-38 64-6 74 65 87 74 30" id="aD"/><path fill="#333" d="M114-157C55-157 80-60 75 0H25v-261h50l-1 109c12-26 28-41 61-42 86-1 58 113 63 194h-50c-7-57 23-157-34-157" id="aE"/><path fill="#333" d="M137-138c1-29-70-34-71-4 15 46 118 7 119 86 1 83-164 76-172 9l43-7c4 19 20 25 44 25 33 8 57-30 24-41C81-84 22-81 20-136c-2-80 154-74 161-7" id="aF"/><g id="y"><use transform="matrix(0.04938271604938272,0,0,0.04938271604938272,0,0)" xlink:href="#aB"/><use transform="matrix(0.04938271604938272,0,0,0.04938271604938272,12.790123456790125,0)" xlink:href="#at"/><use transform="matrix(0.04938271604938272,0,0,0.04938271604938272,22.66666666666667,0)" xlink:href="#aC"/><use transform="matrix(0.04938271604938272,0,0,0.04938271604938272,28.54320987654322,0)" xlink:href="#aD"/><use transform="matrix(0.04938271604938272,0,0,0.04938271604938272,38.41975308641976,0)" xlink:href="#aE"/><use transform="matrix(0.04938271604938272,0,0,0.04938271604938272,49.23456790123458,0)" xlink:href="#ap"/><use transform="matrix(0.04938271604938272,0,0,0.04938271604938272,59.111111111111114,0)" xlink:href="#aF"/></g><path fill="#333" d="M67-125c0 53 21 87 73 88 37 1 54-22 65-47l45 17C233-25 199 4 140 4 58 4 20-42 15-125 8-235 124-281 211-232c18 10 29 29 36 50l-46 12c-8-25-30-41-62-41-52 0-71 34-72 86" id="aG"/><g id="z"><use transform="matrix(0.04938271604938272,0,0,0.04938271604938272,0,0)" xlink:href="#aG"/><use transform="matrix(0.04938271604938272,0,0,0.04938271604938272,12.790123456790125,0)" xlink:href="#as"/><use transform="matrix(0.04938271604938272,0,0,0.04938271604938272,19.703703703703706,0)" xlink:href="#ap"/><use transform="matrix(0.04938271604938272,0,0,0.04938271604938272,29.58024691358025,0)" xlink:href="#at"/><use transform="matrix(0.04938271604938272,0,0,0.04938271604938272,39.4567901234568,0)" xlink:href="#aC"/><use transform="matrix(0.04938271604938272,0,0,0.04938271604938272,45.33333333333334,0)" xlink:href="#ap"/></g><g id="A"><use transform="matrix(0.04938271604938272,0,0,0.04938271604938272,0,0)" xlink:href="#aC"/><use transform="matrix(0.04938271604938272,0,0,0.04938271604938272,5.8765432098765435,0)" xlink:href="#at"/><use transform="matrix(0.04938271604938272,0,0,0.04938271604938272,15.753086419753087,0)" xlink:href="#ay"/><use transform="matrix(0.04938271604938272,0,0,0.04938271604938272,26.567901234567902,0)" xlink:href="#aq"/><use transform="matrix(0.04938271604938272,0,0,0.04938271604938272,31.506172839506174,0)" xlink:href="#ap"/></g><path fill="#333" d="M121-226c-27-7-43 5-38 36h38v33H83V0H34v-157H6v-33h28c-9-59 32-81 87-68v32" id="aH"/><g id="B"><use transform="matrix(0.04938271604938272,0,0,0.04938271604938272,0,0)" xlink:href="#aH"/><use transform="matrix(0.04938271604938272,0,0,0.04938271604938272,5.8765432098765435,0)" xlink:href="#an"/><use transform="matrix(0.04938271604938272,0,0,0.04938271604938272,16.691358024691358,0)" xlink:href="#as"/></g><path fill="#333" d="M25-224v-37h50v37H25zM75 22c2 45-34 59-81 51V38c22 5 31-5 31-27v-201h50V22" id="aI"/><g id="C"><use transform="matrix(0.04938271604938272,0,0,0.04938271604938272,0,0)" xlink:href="#aI"/><use transform="matrix(0.04938271604938272,0,0,0.04938271604938272,4.938271604938272,0)" xlink:href="#an"/><use transform="matrix(0.04938271604938272,0,0,0.04938271604938272,15.753086419753087,0)" xlink:href="#ay"/></g><g id="D"><use transform="matrix(0.06172839506172839,0,0,0.06172839506172839,0,0)" xlink:href="#W"/><use transform="matrix(0.06172839506172839,0,0,0.06172839506172839,20.493827160493826,0)" xlink:href="#M"/><use transform="matrix(0.06172839506172839,0,0,0.06172839506172839,32.839506172839506,0)" xlink:href="#ad"/><use transform="matrix(0.06172839506172839,0,0,0.06172839506172839,40.18518518518518,0)" xlink:href="#S"/><use transform="matrix(0.06172839506172839,0,0,0.06172839506172839,51.29629629629629,0)" xlink:href="#T"/><use transform="matrix(0.06172839506172839,0,0,0.06172839506172839,63.641975308641975,0)" xlink:href="#ad"/><use transform="matrix(0.06172839506172839,0,0,0.06172839506172839,70.98765432098764,0)" xlink:href="#aa"/></g><path fill="#333" d="M87 75C49 33 22-17 22-94c0-76 28-126 65-167h31c-38 41-64 92-64 168S80 34 118 75H87" id="aJ"/><path fill="#333" d="M27 0v-27h64v-190l-56 39v-29l58-41h29v221h61V0H27" id="aK"/><path fill="#333" d="M101-251c68 0 85 55 85 127S166 4 100 4C33 4 14-52 14-124c0-73 17-127 87-127zm-1 229c47 0 54-49 54-102s-4-102-53-102c-51 0-55 48-55 102 0 53 5 102 54 102" id="aL"/><path fill="#333" d="M47-170H22l-4-78h33" id="aM"/><path fill="#333" d="M33-261c38 41 65 92 65 168S71 34 33 75H2C39 34 66-17 66-93S39-220 2-261h31" id="aN"/><g id="E"><use transform="matrix(0.06172839506172839,0,0,0.06172839506172839,0,0)" xlink:href="#aJ"/><use transform="matrix(0.06172839506172839,0,0,0.06172839506172839,7.345679012345679,0)" xlink:href="#aK"/><use transform="matrix(0.06172839506172839,0,0,0.06172839506172839,19.691358024691358,0)" xlink:href="#aL"/><use transform="matrix(0.06172839506172839,0,0,0.06172839506172839,32.03703703703704,0)" xlink:href="#aL"/><use transform="matrix(0.06172839506172839,0,0,0.06172839506172839,44.382716049382715,0)" xlink:href="#aL"/><use transform="matrix(0.06172839506172839,0,0,0.06172839506172839,56.72839506172839,0)" xlink:href="#aM"/><use transform="matrix(0.06172839506172839,0,0,0.06172839506172839,60.925925925925924,0)" xlink:href="#aa"/><use transform="matrix(0.06172839506172839,0,0,0.06172839506172839,72.03703703703704,0)" xlink:href="#aN"/></g><path fill="#333" d="M169-182c-1-43-94-46-97-3 18 66 151 10 154 114 3 95-165 93-204 36-6-8-10-19-12-30l50-8c3 46 112 56 116 5-17-69-150-10-154-114-4-87 153-88 188-35 5 8 8 18 10 28" id="aO"/><path fill="#333" d="M85 4C-2 5 27-109 22-190h50c7 57-23 150 33 157 60-5 35-97 40-157h50l1 190h-47c-2-12 1-28-3-38-12 25-28 42-61 42" id="aP"/><g id="F"><use transform="matrix(0.04938271604938272,0,0,0.04938271604938272,0,0)" xlink:href="#aO"/><use transform="matrix(0.04938271604938272,0,0,0.04938271604938272,11.851851851851853,0)" xlink:href="#aC"/><use transform="matrix(0.04938271604938272,0,0,0.04938271604938272,17.728395061728396,0)" xlink:href="#at"/><use transform="matrix(0.04938271604938272,0,0,0.04938271604938272,27.60493827160494,0)" xlink:href="#aC"/><use transform="matrix(0.04938271604938272,0,0,0.04938271604938272,33.48148148148148,0)" xlink:href="#aP"/><use transform="matrix(0.04938271604938272,0,0,0.04938271604938272,44.2962962962963,0)" xlink:href="#aF"/></g><path fill="#333" d="M238-95c0 69-44 99-111 99C63 4 22-25 22-93v-155h51v151c-1 38 19 59 55 60 90 1 49-130 58-211h52v153" id="aQ"/><path fill="#333" d="M135-194c53 0 70 44 70 98 0 56-19 98-73 100-31 1-45-17-59-34 3 33 2 69 2 105H25l-1-265h48c2 10 0 23 3 31 11-24 29-35 60-35zM114-30c33 0 39-31 40-66 0-38-9-64-40-64-56 0-55 130 0 130" id="aR"/><g id="G"><use transform="matrix(0.04938271604938272,0,0,0.04938271604938272,0,0)" xlink:href="#aQ"/><use transform="matrix(0.04938271604938272,0,0,0.04938271604938272,12.790123456790125,0)" xlink:href="#aR"/><use transform="matrix(0.04938271604938272,0,0,0.04938271604938272,23.60493827160494,0)" xlink:href="#ao"/><use transform="matrix(0.04938271604938272,0,0,0.04938271604938272,34.41975308641975,0)" xlink:href="#at"/><use transform="matrix(0.04938271604938272,0,0,0.04938271604938272,44.2962962962963,0)" xlink:href="#aC"/><use transform="matrix(0.04938271604938272,0,0,0.04938271604938272,50.17283950617284,0)" xlink:href="#ap"/><use transform="matrix(0.04938271604938272,0,0,0.04938271604938272,60.04938271604939,0)" xlink:href="#aF"/></g><g id="H"><use transform="matrix(0.06790123456790123,0,0,0.06790123456790123,0,0)" xlink:href="#aG"/><use transform="matrix(0.06790123456790123,0,0,0.06790123456790123,17.586419753086417,0)" xlink:href="#at"/><use transform="matrix(0.06790123456790123,0,0,0.06790123456790123,31.166666666666664,0)" xlink:href="#aq"/><use transform="matrix(0.06790123456790123,0,0,0.06790123456790123,37.95679012345679,0)" xlink:href="#aD"/><use transform="matrix(0.06790123456790123,0,0,0.06790123456790123,51.53703703703703,0)" xlink:href="#aP"/><use transform="matrix(0.06790123456790123,0,0,0.06790123456790123,66.4074074074074,0)" xlink:href="#aq"/><use transform="matrix(0.06790123456790123,0,0,0.06790123456790123,73.19753086419753,0)" xlink:href="#at"/><use transform="matrix(0.06790123456790123,0,0,0.06790123456790123,86.77777777777777,0)" xlink:href="#aC"/><use transform="matrix(0.06790123456790123,0,0,0.06790123456790123,94.85802469135803,0)" xlink:href="#ap"/><use transform="matrix(0.06790123456790123,0,0,0.06790123456790123,108.43827160493828,0)" xlink:href="#ao"/></g><path fill="#333" d="M24-248c93 1 206-16 204 79-1 75-69 88-152 82V0H24v-248zm52 121c47 0 100 7 100-41 0-47-54-39-100-39v80" id="aS"/><g id="I"><use transform="matrix(0.06790123456790123,0,0,0.06790123456790123,0,0)" xlink:href="#aS"/><use transform="matrix(0.06790123456790123,0,0,0.06790123456790123,16.296296296296294,0)" xlink:href="#as"/><use transform="matrix(0.06790123456790123,0,0,0.06790123456790123,25.80246913580247,0)" xlink:href="#au"/><use transform="matrix(0.06790123456790123,0,0,0.06790123456790123,32.592592592592595,0)" xlink:href="#aD"/><use transform="matrix(0.06790123456790123,0,0,0.06790123456790123,46.17283950617284,0)" xlink:href="#ap"/><use transform="matrix(0.06790123456790123,0,0,0.06790123456790123,59.75308641975309,0)" xlink:href="#aF"/></g></defs></g></svg>